Coordinates
version=1
nRows=14
nColumns=24
inDegrees=yes

Units are S.I. units (second, meters, Newtons, ...)
Angles are in degrees.

endheader
time	pelvis_tilt	pelvis_list	pelvis_rotation	pelvis_tx	pelvis_ty	pelvis_tz	hip_flexion_r	hip_adduction_r	hip_rotation_r	knee_angle_r	ankle_angle_r	subtalar_angle_r	mtp_angle_r	hip_flexion_l	hip_adduction_l	hip_rotation_l	knee_angle_l	ankle_angle_l	subtalar_angle_l	mtp_angle_l	lumbar_extension	lumbar_bending	lumbar_rotation
      5.50000000	      6.59342776	     -2.01624246	      6.88894843	      0.11067740	      1.05928650	     -0.18099482	     -6.29277827	      8.85719564	     -7.91727092	     -4.37023167	      9.17093856	    -18.87110342	      0.00000000	      6.84207479	     -2.49424936	      5.94316331	    -63.07681403	    -18.27850506	    -39.87010504	      0.00000000	    -17.15896103	      2.23882658	     -6.41448823
      5.51000000	      6.20193428	     -1.58916610	      6.62780439	      0.12097899	      1.05970913	     -0.18011060	     -6.73623291	      8.47267584	     -7.68376605	     -4.01300468	      9.29842302	    -18.87655821	      0.00000000	      8.26648802	     -1.69350624	      6.03392832	    -63.19884932	    -17.26833583	    -42.48221352	      0.00000000	    -16.84081947	      1.60309558	     -5.96659552
      5.52000000	      5.69621373	     -1.17396478	      6.28334782	      0.13121191	      1.06004174	     -0.17919456	     -6.99513286	      8.06433161	     -7.44364204	     -3.75661915	      9.40712453	    -18.82627207	      0.00000000	      9.76563941	     -0.93467326	      5.98164746	    -63.04858860	    -15.96238055	    -44.19286830	      0.00000000	    -16.37777517	      0.95970314	     -5.47054722
      5.53000000	      5.26560482	     -0.69365110	      5.90355081	      0.14136343	      1.06052270	     -0.17831691	     -7.29747486	      7.58141483	     -7.25386169	     -3.55647900	      9.49467211	    -18.74399208	      0.00000000	     11.10524111	     -0.13763607	      5.85983156	    -62.58250518	    -14.69384470	    -45.28774101	      0.00000000	    -16.01814537	      0.25403136	     -5.00213440
      5.54000000	      4.65583941	     -0.37763243	      5.51825925	      0.15137116	      1.06069634	     -0.17751273	     -7.33602678	      7.24531674	     -7.00219753	     -3.43341257	      9.47982973	    -18.75128186	      0.00000000	     12.64539875	      0.48010858	      5.72481798	    -61.93431582	    -13.31705304	    -45.68862970	      0.00000000	    -15.43479176	     -0.25692442	     -4.56565857
      5.55000000	      4.18084113	     -0.07539090	      5.11027855	      0.16125918	      1.06101593	     -0.17673347	     -7.47390886	      6.92949221	     -6.84174048	     -3.35740532	      9.35630603	    -18.83765191	      0.00000000	     13.99474268	      1.02893952	      5.52149669	    -61.03016065	    -11.52726340	    -45.06100179	      0.00000000	    -15.03906418	     -0.73125684	     -4.07911372
      5.56000000	      3.79876883	      0.16971579	      4.68939031	      0.17108586	      1.06140698	     -0.17601509	     -7.68699585	      6.67594755	     -6.70694948	     -3.29857408	      9.24560317	    -18.83131936	      0.00000000	     15.19150700	      1.48010978	      5.29525650	    -59.87577971	     -9.71036796	    -43.91617789	      0.00000000	    -14.76282595	     -1.11731768	     -3.64091871
      5.57000000	      3.49715688	      0.34619700	      4.26360627	      0.18086143	      1.06184593	     -0.17536630	     -7.95391847	      6.49236595	     -6.66128698	     -3.26956308	      9.09262231	    -18.75276886	      0.00000000	     16.24914271	      1.82122808	      5.04960792	    -58.48332717	     -7.79053032	    -42.24496672	      0.00000000	    -14.59393916	     -1.40025333	     -3.21251665
      5.58000000	      3.25641110	      0.46845485	      3.82631040	      0.19065428	      1.06230301	     -0.17476161	     -8.27047023	      6.36249885	     -6.63364138	     -3.25655127	      8.97298840	    -18.60297131	      0.00000000	     17.17003408	      2.06392658	      4.77227892	    -56.84213600	     -5.82216196	    -40.22406365	      0.00000000	    -14.49771628	     -1.61432249	     -2.81956872
      5.59000000	      3.08231978	      0.52804887	      3.39620506	      0.20045260	      1.06278011	     -0.17425787	     -8.62470423	      6.28877185	     -6.72264496	     -3.28656974	      8.80573321	    -18.41046444	      0.00000000	     17.94635269	      2.21376618	      4.49446024	    -54.96732294	     -3.80194195	    -37.83598227	      0.00000000	    -14.49060147	     -1.72846833	     -2.39299020
      5.60000000	      2.93992083	      0.55913739	      2.97010811	      0.21031873	      1.06323668	     -0.17382103	     -8.99539316	      6.23460418	     -6.82791656	     -3.35127783	      8.66434136	    -18.17774178	      0.00000000	     18.58979403	      2.30855272	      4.21095929	    -52.83741741	     -1.86044870	    -35.29126102	      0.00000000	    -14.52108070	     -1.80431021	     -1.98656554
      5.61000000	      2.81835417	      0.57398044	      2.55158033	      0.22030470	      1.06365256	     -0.17344369	     -9.38781235	      6.18634614	     -6.93656520	     -3.42606417	      8.53668211	    -17.90722295	      0.00000000	     19.09670004	      2.36013618	      3.91817101	    -50.44387038	     -0.05288767	    -32.69333259	      0.00000000	    -14.56402500	     -1.85494450	     -1.61415831
      5.62000000	      2.71027813	      0.58669750	      2.14048353	      0.23041057	      1.06402098	     -0.17313742	     -9.78971346	      6.12634265	     -7.00732213	     -3.52620462	      8.40927740	    -17.60766772	      0.00000000	     19.46056961	      2.39584257	      3.63683915	    -47.77777037	      1.52179676	    -30.14014226	      0.00000000	    -14.61656581	     -1.89816620	     -1.28692825
      5.63000000	      2.58565686	      0.57171855	      1.76227213	      0.24066566	      1.06427699	     -0.17290030	    -10.16467554	      6.08474905	     -7.13480017	     -3.65419605	      8.27149520	    -17.32403965	      0.00000000	     19.71209585	      2.39455588	      3.39572910	    -44.84790064	      2.83565894	    -27.69015614	      0.00000000	    -14.63133197	     -1.90756584	     -0.94613480
